<?xml version="1.0" encoding="UTF-8"?>
<svg id="UpperBodyOne" xmlns="http://www.w3.org/2000/svg" viewBox="0 0 307.09 707.91">
  <defs>
    <style>
      .cls-100 {
        fill: #current;
      }
    </style>
  </defs>
  <polygon class="cls-100" points="236.52 267.68 230.04 235.92 225.11 231.54 224.48 202.96 227.82 199.17 225.59 197.69 228.63 194.65 225.19 193.44 226.6 146.71 217.82 128.18 211.63 128.07 199.72 127.86 187.01 131.67 180.12 129.57 167.94 144.08 149.33 183.53 141.05 132.75 138.42 135.16 132.52 137.1 130.49 137.77 118.38 140.24 110.16 148.19 108.65 165.65 116.54 191.98 118.47 202.14 119.32 219.94 118.01 219.96 112.99 216.39 107.04 218.1 102.28 216.74 95.14 218.1 88.09 216.97 81.75 213.17 79.64 213.92 82.1 222.46 79.64 261.55 84.6 258.16 84.6 260.48 99.42 247.63 103.17 244.73 103.17 246.56 111.62 243.73 116.7 246.33 112.71 252.1 113.74 254.86 112.51 255.74 109.96 267.66 124.74 285.67 136.58 298.43 152.36 280.76 168.55 299.84 185.98 279.44 196.1 259.68 190.93 210.66 200.04 199.17 203.53 226.19 202.13 233.7 198.66 234.91 200.93 236.93 198.66 237.74 201.72 239.97 200.93 256.76 206.38 280.76 212.12 323.91 242.79 288.52 236.52 267.68"/>
</svg>