<?xml version="1.0" encoding="UTF-8"?>
<svg id="UpperBodyTwo" xmlns="http://www.w3.org/2000/svg" viewBox="0 0 307.09 707.91">
  <defs>
    <style>
      .cls-101 {
        fill: green;
      }
    </style>
  </defs>
  <polygon class="cls-101" points="121.37 157.73 111.48 168.07 107.04 181.8 112.58 195.81 118.47 202.14 119.75 226.73 140.84 229.56 155.54 229.56 192.4 224.62 190.93 210.66 200.04 199.17 200.04 175.49 193.16 169.95 182.23 157.73 165.95 167.52 157.63 173.87 149.2 187.57 142.66 174.94 134.55 162.58 121.37 157.73"/>
  <polygon class="cls-101" points="130.49 161.08 138.42 135.16 130.49 137.77 121.37 157.73 130.49 161.08"/>
  <polygon class="cls-101" points="179.07 129.26 187.01 131.67 182.23 157.73 172.57 163.53 179.07 129.26"/>
</svg>