<?xml version="1.0" encoding="UTF-8"?>
<svg id="FrontHairOne" xmlns="http://www.w3.org/2000/svg" viewBox="0 0 307.09 707.91">
  <defs>
    <style>
      .cls-32 {
      fill: #4e7536;
      }
    </style>
  </defs>
  <polygon class="cls-32" points="143.21 70.38 156.2 61.28 168.42 71.58 173.73 89.97 175.12 86 176.93 84.73 176.93 77.38 173.28 59.66 170.83 54.75 165.74 51.96 144.96 54.66 128.6 68.79 129.31 80.24 134.73 68.49 138.98 64.21 143.21 70.38"/>
  <polygon class="cls-32" points="168.42 71.58 170.32 136.26 169.51 170.21 173.52 163.53 173.15 167.2 176.93 159.78 178.57 111.66 176.93 79.29 172.57 63.03 168.42 71.58"/>
  <polygon class="cls-32" points="140.42 66.31 133.49 78.72 138.98 127.24 146.92 168.74 143.87 173.34 143.21 167.91 141.23 174.48 137.47 175.9 137.47 173.87 135.19 175.9 131.71 100.41 129.1 76.72 131.71 67.66 139.6 61.31 142.06 64.31 140.42 66.31"/>
</svg>