<?xml version="1.0" encoding="UTF-8"?>
<svg id="ShoesTwo" xmlns="http://www.w3.org/2000/svg" viewBox="0 0 307.09 707.91">
  <defs>
    <style>
      .cls-1 {
        fill: #494949;
      }
    </style>
  </defs>
  <polygon class="cls-1" points="136.31 488.49 153.22 491.14 170.33 488.49 177.98 487.03 177.03 511.97 171.8 511.93 172.4 522 175.44 535.73 175.58 542.95 181.93 558.52 177.17 565.5 146.04 573.71 125.04 576.3 120.95 576.3 114.13 570.58 112.77 563.43 136.24 553.15 149.86 544.86 152.79 532.4 146.04 515.68 146.04 515.68 140.51 506.47 137.31 514.02 136.31 488.49"/>
  <polygon class="cls-1" points="209.98 491.2 203.72 491.2 203.72 510.88 209.98 504.73 211.53 512.77 215.97 512.77 219.15 533.08 219.15 548.05 209.63 565.56 211.43 580.71 206.08 599.41 209.4 614.33 234.25 612.51 245.77 605.57 247.27 592.78 241.38 573.42 240.05 549.31 243.14 513.24 250.82 513.96 250.82 491.2 209.98 491.2"/>
</svg>