<?xml version="1.0" encoding="UTF-8"?>
<svg id="Shoes1" xmlns="http://www.w3.org/2000/svg" viewBox="0 0 307.09 707.91">
  <defs>
    <style>
      .cls-21 {
        fill: #current;
      }
    </style>
  </defs>
  <polygon class="cls-21" points="148.35 518.96 172.21 518.96 177.07 536.73 177.07 546.6 183.08 558.06 178.71 565.99 160.02 566.14 151.01 571.46 141.26 573.5 130.58 577.48 120.95 576.3 114.13 570.58 114.13 564.87 122.23 561.69 148.61 545.62 153.03 535.33 150.27 527.98 146.04 526.34 148.61 525.52 146.04 522.51 148.61 521.69 148.35 518.96"/>
  <polygon class="cls-21" points="220.47 545.48 211.79 568.04 214.96 578.52 208.29 598.53 210.61 605.48 211.15 612.51 217.55 614.01 229.17 612.51 240.46 606.14 243.86 603.93 245.77 594.4 241.64 578.21 241.83 548.22 244.42 548.22 242.87 545.48 245.77 545.48 242.61 542.96 243.9 536.5 245.77 533.92 216.26 533.92 218.07 539.61 216.52 542.71 220.47 545.48"/>
</svg>