<?xml version="1.0" encoding="UTF-8"?>
<svg xmlns="http://www.w3.org/2000/svg" viewBox="0 0 307.09 707.91">
    <defs>
        <style>
            .cls-11 {
            fill: #fff;
            }

            .cls-12 {
            fill: #8dc133;
            }

            .cls-13 {
            fill: #c2e57f;
            }

            .cls-14 {
            fill: #d8d8d8;
            }

            .cls-14, .cls-15 {
            mix-blend-mode: multiply;
            }

            .cls-15 {
            fill: #c6c6c6;
            opacity: .24;
            }

            .cls-2 {
            isolation: isolate;
            }
        </style>
    </defs>
    <g class="cls-16">
        <g id="FaceOne">
            <polygon class="cls-11" points="142.16 90.85 139.95 93.27 138.36 94.95 136.4 93.91 134.2 92.46 137.13 89.88 142.16 90.85"/>
            <polygon class="cls-11" points="152.26 89.88 155.06 90.69 158.85 91.04 160.74 88.64 162.36 85.77 155.98 86.1 152.26 89.88"/>
            <polygon points="148.17 81.78 148.63 85.24 155.74 80.8 164.79 81.59 155.56 78.2 148.17 81.78"/>
            <polygon points="140.22 81.69 140.22 85.77 135.02 82.9 130.64 83.82 130.49 82.44 134.99 80.47 140.22 81.69"/>
            <polygon points="152.26 89.88 156.35 85.15 160.42 84.72 163.23 84.72 161.56 87.08 156.94 86.76 152.26 89.88"/>
            <polygon points="160.74 88.64 158.82 90.69 155.06 90.69 159.18 91.65 160.74 88.64"/>
            <polygon points="142.16 90.85 137.64 89.13 133.66 90.23 132.1 91.01 134.2 92.46 137.91 90.63 142.16 90.85"/>
            <polygon points="136.4 93.91 138.23 94.56 139.95 93.27 138.55 95.42 136.4 93.91"/>
            <polygon points="151.47 101.38 150.33 102.98 151.47 102.98 151.47 101.38"/>
            <polygon points="146.13 102.98 144.47 101.78 145 103.52 146.13 102.98"/>
            <polygon class="cls-14" points="144.47 88.45 145.93 91.65 144.47 101.78 145 103.52 146.13 102.98 148.45 103.76 150.33 102.98 151.47 102.98 148.95 105.1 146.13 104.01 143.99 104.56 142.66 101.78 145.08 91.87 144.47 88.45"/>
            <polygon class="cls-14" points="144.47 111.66 148.01 107.73 150.33 108.22 151.72 107.08 156.83 108.92 159.18 107.68 156.83 110.01 151.47 109.86 150.33 110.25 148.85 109.91 144.47 111.66"/>
            <polygon class="cls-14" points="149.2 113.47 151.47 113.87 154.55 112.14 152.12 114.96 149.2 113.47"/>
            <polygon class="cls-15" points="175.12 84.38 165.95 99.66 165.95 109.37 169.25 99.66 175.51 89.13 175.12 84.38"/>
            <polygon class="cls-12" points="155.69 87.59 156.94 86.76 158.84 87.59 158.84 89.13 158.13 90.69 156.48 90.69 155.69 89.88 155.33 88.87 155.69 87.59"/>
            <polygon class="cls-12" points="136.74 91.21 137.58 90.79 137.91 90.63 138.42 90.63 139.19 91.65 139.19 92.62 138.81 94.12 138.23 94.56 137.13 94.17 136.2 93.27 136.2 92.08 136.74 91.21"/>
            <polygon class="cls-13" points="137.13 92.01 137.7 91.29 138.73 91.04 139.19 91.65 138.16 91.65 137.13 92.01"/>
            <polygon class="cls-13" points="157.57 87.04 158.84 87.59 157.09 88.02 156.16 88.72 156.88 87.3 157.57 87.04"/>
        </g>
    </g>
</svg>