<?xml version="1.0" encoding="UTF-8"?>
<svg xmlns="http://www.w3.org/2000/svg" viewBox="0 0 307.09 707.91">
    <defs>
        <style>
            .cls-11 {
            fill: none;
            opacity: 0;
            stroke: #7a7a7a;
            stroke-miterlimit: 10;
            }

            .cls-12 {
            fill: #fff;
            }

            .cls-13 {
            fill: #b0d8f4;
            }

            .cls-14 {
            fill: #03fc13;
            }

            .cls-15 {
            fill: #797b7c;
            }

            .cls-16 {
            opacity: .24;
            }

            .cls-16, .cls-17 {
            fill: #c6c6c6;
            mix-blend-mode: multiply;
            }

            .cls-17 {
            opacity: .84;
            }

            .cls-18 {
            isolation: isolate;
            }
        </style>
    </defs>
    <g class="cls-18">
        <g id="Face1">
            <rect class="cls-11" width="307.09" height="707.91"/>
        </g>
        <g id="Face_2">
            <polygon class="cls-12" points="142.92 92.19 143.21 93.05 142.06 93.3 139.53 93.85 136.14 93.85 134.79 93.05 133.49 92.51 133.74 90.5 136.53 90.5 141.69 91.57 142.92 92.19"/>
            <polygon class="cls-17" points="144.96 110.85 148.59 109.66 150.61 109.98 152.87 109.1 158.44 109.23 153.29 110.17 151.21 111.66 148.33 111.08 144.96 110.85"/>
            <polygon points="152.16 90.28 161.72 86.71 164 87.38 159.99 88.06 153.52 90.28 152.47 91.45 152.16 90.28"/>
            <polygon points="161.9 88.8 160.74 90.83 156.72 91.45 154.14 91.45 156.72 92.19 160.74 91.45 163.5 89.08 161.9 88.8"/>
            <polygon points="142.55 90.96 142.92 92.19 141.69 91.57 134.54 90.96 133.49 92.51 133.74 90.5 137.62 89.97 142.55 90.96"/>
            <polygon points="134.79 93.05 134.29 93.88 136.08 94.65 140.52 94.22 142.06 93.3 139.53 93.85 136.14 93.85 134.79 93.05"/>
            <polygon points="148.9 83.62 149.39 85.47 152.16 83.62 158.57 82.7 163.5 84.49 158.45 81.84 148.9 83.62"/>
            <polygon points="142.06 84.12 142.06 86.27 140.15 85.2 134.29 85.2 131.71 87.88 133.49 84.61 139.72 84.12 142.06 84.12"/>
            <polygon class="cls-16" points="144.64 87.33 146.36 90.5 143.91 101.59 147.32 104.76 147.32 107.11 143.91 107.67 140.42 103.05 144.4 92.51 144.64 87.33"/>
            <polygon points="147.02 104.14 145.07 102.6 145.75 104.87 147.02 104.14"/>
            <polygon points="150.23 103.73 151.21 101.87 151.61 103.73 150.23 103.73"/>
            <polygon class="cls-15" points="143.87 110.47 149.16 110.99 150.92 111.41 153.02 110.19 158.82 108.82 159.63 110.13 159.63 110.13 158.82 109.35 153.24 110.42 150.86 111.91 149.13 111.27 144.27 110.95 143.61 111.66 143.61 111.66 143.87 110.47"/>
            <polygon class="cls-16" points="149.45 113.68 151.51 114.1 154.36 112.61 151.91 114.85 149.45 113.68"/>
            <polygon class="cls-12" points="152.47 91.45 153.52 90.28 159.99 88.06 162.16 87.69 161.9 88.8 160.74 90.83 156.72 91.45 154.14 91.45 152.47 91.45"/>
            <polygon class="cls-14" points="161.63 89.28 160.62 88.61 159.12 89.28 158.82 91.13 160.74 90.83 161.63 89.28"/>
            <polygon class="cls-14" points="141.47 93.43 142.06 92.65 140.81 91.73 139.38 91.99 138.98 93.27 139.53 93.85 141.47 93.43"/>
            <polygon points="161.45 89.87 160.69 89.37 159.87 89.62 159.42 91.29 160.74 90.83 161.45 89.87"/>
            <polygon points="141.23 93.47 141.23 92.68 140.23 92.51 139.6 93.05 140.04 93.85 141.23 93.47"/>
            <polygon class="cls-13" points="140.52 93.05 139.33 93.05 139.75 92.51 140.52 93.05"/>
            <polygon class="cls-13" points="159.42 90.33 160.44 90.17 159.42 89.25 159.42 90.33"/>
            <polygon class="cls-16" points="171.77 93.53 165.08 102.6 166.27 111.91 168.42 104.17 171.77 93.53"/>
        </g>
    </g>
</svg>