<?xml version="1.0" encoding="UTF-8"?>
<svg id="LowerBodyOne" xmlns="http://www.w3.org/2000/svg" viewBox="0 0 307.09 707.91">
  <defs>
    <style>
      .cls-19 {
        fill: #adf542;
      }
    </style>
  </defs>
  <polygon class="cls-19" points="241.68 450.79 229.56 430.21 229.24 428.68 230.98 426.28 229.22 425.45 230.98 422.55 227.97 422.55 224.76 407.07 223.22 373.99 218.77 329.54 207.25 282.11 197.37 266.89 193.04 247.18 165.43 255.37 135.85 255.37 119.05 244.73 112.1 258.29 110.28 272.63 104.42 305.28 102.1 326.62 116.95 401.86 131.05 433.14 129.6 440.37 134.29 440.69 131.27 447.87 134.85 446.09 135.85 477.46 147.41 501.93 172.53 524.27 170.64 492.45 171.88 464.41 165.42 424.96 157.38 391.61 156.97 343.36 159.6 332.23 160.02 343.19 186.25 407.54 193.37 441.01 204.8 458.79 207.52 483.19 214.9 507.24 218.21 524.27 245.77 492.87 246.63 481.02 241.68 450.79"/>
</svg>