<?xml version="1.0" encoding="UTF-8"?>
<svg xmlns="http://www.w3.org/2000/svg" viewBox="0 0 307.09 707.91">
    <defs>
        <style>
            .cls-1, .cls-2 {
            fill: #701b4d;
            }

            .cls-2 {
            mix-blend-mode: multiply;
            opacity: .24;
            }

            .cls-3 {
            isolation: isolate;
            }
        </style>
    </defs>
    <g class="cls-3">
        <g id="Body_1" >
            <path class="cls-1" d="m240.05,549.31l5.72-66.69-5.72-28.9-9.85-21.28-5.08-17.47-1.91-40.97,10.16-3.18,9.53-13.34-8.57-26.68-1.91-49.86.64-24.14-7.94-24.45-1.27-57.48-1.27-9.53,1.91-20.64-6.67-16.51-18.1-.32-12.7,3.81-14.61-4.45-2.54-15.56,6.67-10.16.32-24.14-3.81-17.47-2.21-5.14-5.09-2.8-20.33,2.54-16.2,15.56,1.91,18.42,3.18,5.4-1.27,9.53,13.34,17.47-.32,7.3-7.62,6.99-21.28,6.99-6.99,6.03-1.51,17.46,5.07,15.53,4.58,17.49,1.71,21.61-9.85-1.59-19.06-.64-19.37-6.99v-15.24l-9.53-7.62-9.53-5.4-3.49,3.18v4.13l-2.86,10.8,6.67,13.97,14.93,7.62,29.54,15.56,16.67,6.67h4.92l-8.17,24.11-2.72,17.28-4.47,24.08.97,27.18,13.12,64.88,16.51,38.43,3.49,33.98,13.34,37.79,1.91,22.87-3.18,9.53-27.63,16.83-8.1,3.18v5.72l6.83,5.72h11.12l14.61-4.45,6.99-.64,6.35-5.08,17.15-.64,4.76-6.99-6.35-15.56v-6.67l-5.08-20.01.32-53.04-5.4-23.18v-16.2l-7.3-19.37-2.22-39.06,1.27-26.04-1.91-13.97,4.13,1.27.64,16.51,27.31,67.01,6.03,30.81,11.43,17.79,2.54,23.82,9.85,32.08,3.49,32.71-8.89,20.64,3.18,10.48-6.67,20.01,2.22,5.72.64,8.26h15.24l11.12-4.45,6.35-4.13,1.91-9.53-4.13-16.2-1.59-28.9Zm-46.15-287.75l-2.18-36.24-.79-14.65,9.11-11.49,3.76,29.11-1.88,20.99,4.46,31.49-12.48-19.21Z"/>
            <polygon class="cls-2" points="120 220.28 119.05 244.73 114.13 244.73 94.07 236.28 99.57 218.34 110.16 218.69 120 220.28"/>
            <polygon class="cls-2" points="199.61 165.21 200.04 199.17 190.93 210.66 182.23 215.38 194.99 162.35 186.19 157.07 198.66 150.02 200.93 158.83 199.61 165.21"/>
            <polygon class="cls-2" points="120 157.73 116.92 190.01 123.7 161.91 120 157.73"/>
            <polygon class="cls-2" points="169.86 111.66 164.31 118.73 158.29 123.28 150.55 123.89 146.36 120.87 146.5 132.25 156.21 145.39 160.63 135.93 175.12 128.07 172.4 127.23 169.86 111.66"/>
        </g>
    </g>
</svg>